
<svg id="wave" style="transform:rotate(0deg); transition: 0.3s" viewBox="0 0 1440 280" version="1.1" xmlns="http://www.w3.org/2000/svg"><defs><linearGradient id="sw-gradient-0" x1="0" x2="0" y1="1" y2="0"><stop stop-color="rgba(243, 106, 62, 1)" offset="0%"></stop><stop stop-color="rgba(255, 179, 11, 1)" offset="100%"></stop></linearGradient></defs><path style="transform:translate(0, 0px); opacity:1" fill="url(#sw-gradient-0)" d="M0,112L26.7,107.3C53.3,103,107,93,160,98C213.3,103,267,121,320,107.3C373.3,93,427,47,480,60.7C533.3,75,587,149,640,177.3C693.3,205,747,187,800,163.3C853.3,140,907,112,960,121.3C1013.3,131,1067,177,1120,200.7C1173.3,224,1227,224,1280,210C1333.3,196,1387,168,1440,172.7C1493.3,177,1547,215,1600,214.7C1653.3,215,1707,177,1760,135.3C1813.3,93,1867,47,1920,60.7C1973.3,75,2027,149,2080,158.7C2133.3,168,2187,112,2240,112C2293.3,112,2347,168,2400,177.3C2453.3,187,2507,149,2560,149.3C2613.3,149,2667,187,2720,205.3C2773.3,224,2827,224,2880,228.7C2933.3,233,2987,243,3040,228.7C3093.3,215,3147,177,3200,158.7C3253.3,140,3307,140,3360,158.7C3413.3,177,3467,215,3520,219.3C3573.3,224,3627,196,3680,186.7C3733.3,177,3787,187,3813,191.3L3840,196L3840,280L3813.3,280C3786.7,280,3733,280,3680,280C3626.7,280,3573,280,3520,280C3466.7,280,3413,280,3360,280C3306.7,280,3253,280,3200,280C3146.7,280,3093,280,3040,280C2986.7,280,2933,280,2880,280C2826.7,280,2773,280,2720,280C2666.7,280,2613,280,2560,280C2506.7,280,2453,280,2400,280C2346.7,280,2293,280,2240,280C2186.7,280,2133,280,2080,280C2026.7,280,1973,280,1920,280C1866.7,280,1813,280,1760,280C1706.7,280,1653,280,1600,280C1546.7,280,1493,280,1440,280C1386.7,280,1333,280,1280,280C1226.7,280,1173,280,1120,280C1066.7,280,1013,280,960,280C906.7,280,853,280,800,280C746.7,280,693,280,640,280C586.7,280,533,280,480,280C426.7,280,373,280,320,280C266.7,280,213,280,160,280C106.7,280,53,280,27,280L0,280Z"></path></svg>